# xmcd
#
# Track frame offsets:
#	150
#	13111
#	34918
#	51563
#	70427
#	84258
#	101784
#	119692
#	137044
#	154612
#	169778
#	187091
#	207012
#	223673
#	240243
#
# Disc length: 3413 seconds
#
# Revision: 0
# Processed by: cddbd v1.5.2PL0 Copyright (c) Steve Scherf et al.
# Submitted via: audiograbber 1.83.01
#
DISCID=d90d530f
DTITLE=Sound Choice - Country Hits - Vol. 189 SC8989
DYEAR=1900
DGENRE=Karaoke
TTITLE0=Johnny Cash - God's Gonna Cut You Down
TTITLE1=Sara Evans - You'll Always Be My Baby
TTITLE2=Eric Church - Two Pink Lines
TTITLE3=Kenny Chesney - You Save Me
TTITLE4=Vince Gill - The Reason Why
TTITLE5=Trent Willmon - On Again Tonight
TTITLE6=Pat Green - Feels Like It Should
TTITLE7=Lee Ann Womack - Finding My Way Back Home
TTITLE8=Phil Vassar - The Woman In My Life
TTITLE9=Toby Keith - The Woman In My Life
TTITLE10=Tim McGraw - My Little Girl
TTITLE11=Rascal Flatts - My Wish
TTITLE12=Gretchen Wilson - One Bud Wiser
TTITLE13=Alan Jackson - Like Red On A Rose
TTITLE14=Bomshel - Country Music Love Song
EXTD=
EXTT0=
EXTT1=
EXTT2=
EXTT3=
EXTT4=
EXTT5=
EXTT6=
EXTT7=
EXTT8=
EXTT9=
EXTT10=
EXTT11=
EXTT12=
EXTT13=
EXTT14=
PLAYORDER=
